<svg width="2880" height="170" viewBox="0 0 2880 170" fill="none" xmlns="http://www.w3.org/2000/svg">
<g clip-path="url(#clip0_8497_1041)">
<rect width="2880" height="170" fill="white"/>
<rect x="6" y="9" width="1440" height="161" fill="#C4C4C4"/>
<rect width="2880" height="170" fill="white"/>
<path d="M1644 209C1640.41 192.977 1600.47 128.9 1570.33 123.401C1502.04 110.932 1425.86 123.601 1353.84 118.787C1294.69 114.833 1239.99 99.1652 1180.44 97.2719C1113.88 95.1522 1049.2 117.045 982.509 116.543C906.965 115.972 838.566 95.4409 766.564 83.9301C663.294 67.4186 549.922 69.4924 450.357 90.9816C401.613 101.511 354.376 115.349 301.318 118.344C199.75 124.083 98.1565 88.9538 -0.448591 101.997C-2.54943 102.208 -4.2801 102.954 -5.01636 103.966C-18.4596 120.163 -24.0512 137.735 -21.3298 155.233C-21.0688 156.893 -20.612 158.685 -18.3216 159.889C-15.9398 161.146 -12.2204 161.421 -8.78803 161.618C18.0778 163.143 45.0904 163.922 72.1267 163.951" fill="#27AE60"/>
<path d="M3384 209C3379.91 192.977 3334.35 128.9 3299.99 123.401C3222.1 110.932 3135.22 123.601 3053.08 118.787C2985.63 114.833 2923.25 99.1652 2855.33 97.2719C2779.43 95.1522 2705.66 117.045 2629.6 116.543C2543.44 115.972 2465.44 95.4409 2383.32 83.9301C2265.55 67.4186 2136.25 69.4924 2022.7 90.9816C1967.11 101.511 1913.24 115.349 1852.73 118.344C1736.9 124.083 1562.95 105.301 1450.5 118.344C1450.5 145.347 1499.91 127.988 1499.07 129C1483.74 145.197 1481.66 137.735 1484.76 155.233C1485.06 156.893 1485.58 158.685 1488.2 159.889C1490.91 161.146 1495.15 161.421 1499.07 161.618C1529.71 163.143 1560.51 163.922 1591.35 163.951" fill="#27AE60"/>
<path d="M1457.41 133.059C1430.26 133.901 1403 134.67 1376.52 133.297C1327.93 130.774 1280.54 120.861 1231.9 123.087C1175.01 125.692 1126.68 144.328 1072.71 153.716C1030.48 161.032 985.134 162.627 941.272 158.339C870.597 151.372 809.791 129.81 745.543 113.491C692.643 100.052 631.473 93.3989 570.508 95.5287C540.236 96.5853 518.281 99.6891 492.779 103.721C461.444 108.674 431.047 115.023 399.435 119.55C322.763 130.53 241.851 130.054 163.356 124.058C114.062 120.29 33.4597 115.7 -11.6004 126.204C-14.6916 126.927 1.25978 207.251 -1.75875 208.129L1459 212.138" fill="#6FCF97"/>
<rect opacity="0.5" x="71.8779" y="149.712" width="169.562" height="8.44059" rx="4.2203" fill="#219653"/>
<rect opacity="0.5" x="245.922" y="149.712" width="58.6638" height="8.44059" rx="4.2203" fill="#219653"/>
<path d="M-1.4541 118.518C-0.0502034 122.404 3.02124 125.661 6.33654 128.523C15.4124 136.364 26.8974 142.058 39.2622 144.844L40.5047 141.482C40.5047 141.482 7.52623 134.932 -0.409417 109.949" fill="#219653"/>
<path d="M36.0295 152.448C35.1528 148.365 35.9207 143.794 39.1668 140.761C41.5824 138.505 45.0988 137.336 48.6217 137.01C52.1446 136.684 55.6873 137.135 59.1674 137.695C64.3513 138.525 69.7593 139.73 73.5294 142.944C69.0013 144.41 64.3111 145.318 59.5629 145.648C63.7647 146.787 68.5531 148.421 69.8318 152.096C66.1711 153.032 62.3394 153.08 58.6566 152.234C60.5716 153.913 62.3137 155.778 63.857 157.803C64.1827 158.153 64.3902 158.597 64.4502 159.071C64.4502 159.802 63.7054 160.408 62.8914 160.579C62.062 160.702 61.2159 160.64 60.4131 160.398C57.0502 159.605 53.8412 158.263 50.9154 156.427C51.7689 158.732 51.0966 161.258 50.2563 163.576C49.6631 165.223 48.9644 166.87 47.6924 168.207C46.4203 169.544 44.466 170.462 42.5052 170.232C41.8922 167.205 41.6352 164.304 40.0368 161.564C38.277 158.567 37.2027 155.626 36.0295 152.448Z" fill="#B8EAF8"/>
<path d="M356.201 201.008C358.178 194.75 355.163 187.676 350.084 183.527C345.006 179.377 338.263 177.774 331.712 177.533C330.608 177.494 329.289 177.359 328.792 176.377C328.433 175.673 328.677 174.82 328.986 174.095C331.504 168.203 338.056 164.647 344.475 164.578C350.895 164.508 357.038 167.476 361.919 171.628C360.419 167.15 359.282 162.361 360.202 157.731C360.983 153.819 363.336 150.176 366.763 148.131C370.19 146.086 374.672 145.786 378.215 147.644C382.087 149.682 384.312 153.802 386.312 157.688L390.886 166.58C390.076 161.034 392.106 154.971 396.594 151.612C401.083 148.253 407.984 148.2 412.083 152.027C414.212 154.003 415.445 156.763 416.535 159.463C417.794 162.59 418.937 165.759 419.963 168.971C424.468 162.871 431.497 159.141 439.077 158.826C446.656 158.512 453.97 161.648 458.966 167.354C453.142 165.226 446.795 169.745 443.806 175.179C440.817 180.612 439.967 186.962 437.334 192.567C432.651 202.545 422.092 209.491 411.068 209.843" fill="#B8EAF8"/>
<path d="M34.0653 111.398C44.9292 112.601 55.7187 114.4 66.3846 116.789C52.1611 123.55 36.8105 130.341 21.2358 127.986C16.6681 127.291 -3.58951 121.798 3.76942 114.451C10.0738 108.177 26.2647 110.542 34.0653 111.398Z" fill="#219653"/>
<path d="M219.367 72.6709L219.893 71.8344L291.54 116.834L291.014 117.671L219.367 72.6709Z" fill="#F2994A"/>
<path d="M117.581 112.386L96.0244 119.993C96.0607 120.168 97.1317 125.131 97.6359 127.436C97.9984 129.089 98.3631 130.736 98.73 132.376C98.9014 133.156 99.2409 134.022 99.254 134.839C99.1966 135.542 99.4916 136.228 100.042 136.67C101.426 137.999 102.969 139.153 104.636 140.105C105.331 140.503 106.148 140.876 106.91 140.629C107.345 140.453 107.728 140.17 108.023 139.805C108.225 139.619 108.373 139.383 108.452 139.12C108.484 138.705 108.351 138.293 108.083 137.974C107.971 137.8 107.852 137.645 107.737 137.457C106.896 136.222 105.453 134.661 105.16 133.176C105.011 132.402 105.374 131.319 105.489 130.541C105.621 129.636 105.753 128.733 105.888 127.828C106.191 125.771 106.502 123.712 106.821 121.653L121.568 118.139" fill="#DBA258"/>
<path d="M87.2055 123.083L95.3487 130.328C95.5059 130.48 95.7551 130.48 95.9123 130.328L106.458 124.525C106.652 124.331 106.557 124.406 106.682 124.65L105.453 132.725C105.529 132.872 105.508 133.051 105.4 133.176L102.434 136.608C102.289 136.777 102.305 137.031 102.47 137.181L107.101 141.34C107.263 141.486 107.282 141.735 107.143 141.904L103.927 145.773C103.856 145.858 103.754 145.911 103.643 145.919C103.533 145.928 103.424 145.892 103.34 145.819L83.0004 127.943C82.8354 127.795 82.8193 127.542 82.9641 127.374L86.6123 123.116C86.6848 123.03 86.7895 122.978 86.9018 122.971C87.014 122.965 87.1239 123.005 87.2055 123.083Z" fill="#FFFEFD"/>
<path d="M104.227 146.636L102.658 146.277C102.452 146.241 102.257 146.162 102.085 146.043C101.836 145.825 101.67 145.527 101.617 145.2C101.617 145.147 101.587 145.095 101.574 145.045C101.439 144.637 101.1 144.33 100.681 144.235C100.581 144.214 100.48 144.2 100.378 144.192C100.068 144.18 99.7648 144.098 99.4911 143.952C99.0814 143.657 98.7923 143.224 98.6771 142.733C98.6285 142.584 98.5713 142.438 98.5058 142.295C98.2974 141.893 97.9067 141.617 97.4578 141.554C97.3966 141.546 97.335 141.54 97.2732 141.538C97.0475 141.53 96.8247 141.485 96.6141 141.403C96.0275 141.146 95.8364 140.57 95.6815 140.109C95.6177 139.861 95.5057 139.628 95.3519 139.424C95.1191 139.235 94.8406 139.111 94.5445 139.065C94.142 138.982 93.7614 138.816 93.4273 138.577C93.049 138.231 92.7702 137.79 92.6199 137.299C92.5001 136.611 91.9086 136.104 91.2095 136.091C90.1925 136.004 89.3482 135.27 89.1201 134.276C89.0325 133.954 88.866 133.659 88.6356 133.417C88.3788 133.246 88.0874 133.133 87.7821 133.087C87.2329 133.02 86.7235 132.767 86.3387 132.369C86.1355 132.095 85.9887 131.782 85.9069 131.451C85.8048 131.121 85.7323 130.914 85.5774 130.835C85.4232 130.781 85.2592 130.759 85.0962 130.772C84.7834 130.793 84.4701 130.738 84.1834 130.611C83.7353 130.349 83.4255 129.903 83.3364 129.392L83.287 129.188C83.2489 128.955 83.1661 128.731 83.0431 128.53C82.983 128.445 82.8865 128.394 82.7828 128.391L82.1533 127.631C82.3714 127.454 82.6525 127.374 82.9311 127.41C83.2896 127.458 83.6144 127.646 83.834 127.933C84.0408 128.24 84.1811 128.587 84.246 128.951C84.2625 129.017 84.2756 129.08 84.2921 129.142C84.3223 129.373 84.4404 129.583 84.6217 129.728C84.7742 129.78 84.9359 129.799 85.0962 129.784C85.4281 129.764 85.7597 129.83 86.0585 129.975C86.4623 130.252 86.7397 130.677 86.8297 131.158C86.8783 131.366 86.9631 131.564 87.0801 131.744C87.3339 131.96 87.6481 132.092 87.9798 132.122C88.4339 132.193 88.8651 132.369 89.2387 132.636C89.6086 132.982 89.8784 133.421 90.0198 133.907C90.1104 134.223 90.2703 134.514 90.4877 134.76C90.7636 134.948 91.0796 135.069 91.4105 135.113C91.8944 135.188 92.3526 135.38 92.7452 135.673C93.1016 136.018 93.3656 136.447 93.513 136.921C93.6096 137.248 93.7837 137.548 94.0205 137.793C94.2527 137.943 94.511 138.047 94.7818 138.1C95.2625 138.189 95.7062 138.418 96.0572 138.758C96.3051 139.063 96.4849 139.416 96.5845 139.796C96.713 140.181 96.802 140.421 96.9766 140.497C97.0829 140.533 97.1942 140.55 97.3062 140.55L97.5435 140.573C98.3195 140.677 98.9947 141.156 99.3494 141.854C99.4352 142.033 99.5089 142.218 99.5702 142.407C99.6823 142.737 99.7778 142.997 99.9591 143.102C100.112 143.17 100.276 143.207 100.444 143.211C100.579 143.211 100.714 143.24 100.846 143.267C101.614 143.436 102.235 144 102.477 144.749C102.497 144.815 102.513 144.881 102.533 144.95C102.552 145.058 102.59 145.161 102.645 145.256C102.707 145.283 102.772 145.303 102.839 145.315L104.405 145.674L104.227 146.636Z" fill="black"/>
<path d="M191.796 127.986L199.61 149.458C199.61 149.458 222.398 144.383 223.051 143.859C223.703 143.336 224.481 141.258 221.749 141.258C219.017 141.258 201.172 138.653 201.172 138.653L197.527 123.948" fill="#BF8B4C"/>
<path d="M197.728 150.074L209.193 147.208C209.406 147.156 209.54 146.946 209.496 146.731L208.089 139.7C208.063 139.572 208.099 139.44 208.188 139.344C208.276 139.248 208.405 139.2 208.534 139.216L212.558 139.65L216.75 140.105C216.916 140.123 217.054 140.24 217.099 140.401L218.325 144.768C218.353 144.871 218.421 144.959 218.513 145.012C218.606 145.066 218.716 145.08 218.819 145.051L224.854 143.477C225.066 143.424 225.283 143.545 225.348 143.754L226.805 148.572C226.837 148.678 226.824 148.792 226.77 148.888C226.716 148.985 226.625 149.055 226.518 149.082L199.458 156.252C199.244 156.309 199.023 156.185 198.961 155.972L197.422 150.587C197.389 150.478 197.403 150.361 197.461 150.263C197.52 150.165 197.617 150.096 197.728 150.074Z" fill="#FFFEFD"/>
<path d="M201.883 156.663C201.617 156.657 201.353 156.608 201.102 156.518L200.898 156.449C200.683 156.353 200.451 156.298 200.216 156.288C200.113 156.292 200.017 156.345 199.959 156.43L198.97 156.535C198.942 156.255 199.03 155.977 199.214 155.764C199.451 155.49 199.788 155.323 200.15 155.3C200.52 155.297 200.887 155.371 201.227 155.517L201.412 155.583C201.618 155.681 201.853 155.697 202.071 155.629C202.198 155.53 202.303 155.405 202.381 155.264C202.546 154.975 202.783 154.734 203.07 154.566C203.522 154.379 204.031 154.379 204.483 154.566C204.684 154.64 204.896 154.679 205.11 154.681C205.43 154.586 205.714 154.397 205.924 154.137C206.234 153.798 206.618 153.535 207.047 153.37C207.541 153.254 208.056 153.273 208.54 153.423C208.852 153.52 209.182 153.546 209.506 153.499C209.817 153.374 210.093 153.178 210.313 152.926C210.947 152.127 212.021 151.823 212.979 152.171C213.306 152.272 213.652 152.291 213.988 152.227C214.24 152.116 214.469 151.959 214.663 151.763C214.999 151.412 215.429 151.166 215.902 151.055C216.294 151.016 216.69 151.062 217.063 151.19C217.455 151.295 217.705 151.351 217.863 151.249C217.953 151.177 218.031 151.092 218.094 150.996L218.242 150.815C218.757 150.224 219.53 149.923 220.309 150.011C220.505 150.04 220.7 150.081 220.892 150.133C221.079 150.262 221.312 150.304 221.532 150.25C221.753 150.196 221.939 150.05 222.045 149.85C222.13 149.743 222.22 149.641 222.316 149.543C222.88 148.998 223.692 148.792 224.448 149.003L224.649 149.066C224.752 149.113 224.864 149.139 224.978 149.142C225.037 149.105 225.09 149.061 225.137 149.01L226.3 147.903L226.982 148.618L225.819 149.728C225.675 149.88 225.5 149.998 225.305 150.074C224.985 150.162 224.645 150.136 224.342 150.001L224.187 149.952C223.773 149.84 223.331 149.952 223.021 150.248C222.948 150.321 222.886 150.4 222.82 150.479C222.354 151.19 221.435 151.451 220.665 151.091C220.513 151.05 220.359 151.017 220.203 150.992C219.752 150.946 219.306 151.119 219.004 151.457C218.964 151.503 218.928 151.552 218.892 151.598C218.763 151.786 218.601 151.949 218.414 152.079C217.873 152.428 217.287 152.27 216.819 152.142C216.58 152.058 216.327 152.02 216.074 152.03C215.787 152.12 215.529 152.285 215.326 152.507C215.035 152.795 214.687 153.02 214.304 153.166C213.806 153.289 213.284 153.278 212.791 153.133C212.471 153.038 212.133 153.017 211.803 153.07C211.498 153.198 211.227 153.392 211.009 153.64C210.376 154.441 209.299 154.741 208.343 154.384C208.024 154.279 207.684 154.255 207.354 154.312C207.074 154.443 206.826 154.633 206.626 154.869C206.266 155.29 205.773 155.575 205.228 155.675C204.892 155.691 204.556 155.64 204.24 155.527C203.91 155.432 203.693 155.379 203.551 155.448C203.416 155.547 203.304 155.672 203.221 155.817C203.063 156.084 202.844 156.309 202.582 156.476C202.37 156.6 202.129 156.665 201.883 156.663Z" fill="black"/>
<path d="M150.49 56.0942C150.49 56.0942 138.781 101.399 138.023 101.771L110.271 112.804L114.958 125.746L149.693 113.087L162.97 73.0708L191.048 133.667L205.038 127.456L171.153 53.7197L150.49 56.0942Z" fill="#B8EAF8"/>
<path d="M173.035 35.0898L181.82 42.9212L199.01 58.2414C202.965 61.752 212.037 69.7908 212.037 69.7908C212.037 69.7908 213.636 65.8191 223.799 72.1125C223.351 73.4298 220.596 72.4418 221.011 73.2915C221.515 74.3256 219.564 77.2796 217.972 79.4301C216.928 80.8396 212.469 77.5398 212.146 77.0162C210.647 74.5858 206.748 71.9281 204.609 70.1695C202.47 68.4109 200.285 66.6523 198.104 64.9168C196.034 63.2702 193.957 61.6345 191.872 60.0098C190.83 59.1953 189.787 58.3841 188.741 57.5761C188.346 57.2732 187.891 56.7594 187.446 56.5453C187.001 56.3313 186.629 56.5223 186.161 56.6672C185.749 56.8199 185.309 56.8795 184.872 56.8417C184.431 56.7971 184.05 56.5119 183.883 56.1008C183.834 55.9185 183.814 55.7295 183.824 55.5409C183.824 54.5529 183.936 54.1281 183.188 53.5123C182.892 53.2653 182.598 53.0117 182.302 52.7614L179.636 50.5055L171.034 43.2275" fill="#DBA258"/>
<path d="M142.383 31.0723L176.445 32.0569L170.214 44.8644L173.654 54.1184L147.807 57.1186L151.053 40.5963L145.942 42.4471L142.383 31.0723Z" fill="#F2F2F2"/>
<path d="M314.821 110.532C313.236 105.698 311.349 100.969 309.173 96.3708L310.066 95.9492C312.262 100.589 314.163 105.361 315.761 110.239L314.821 110.532Z" fill="#219653"/>
<path d="M305.647 132.965L307.469 136.68L302.74 136.193C302.74 136.193 312.033 143.362 311.872 147.6C311.71 151.839 307.469 146.636 306.322 145.977C305.175 145.318 298.822 140.273 298.822 140.273L298.331 143.369C298.331 143.369 294.089 140.76 294.415 138.643C294.742 136.525 294.415 139.302 294.415 139.302C294.415 139.302 287.696 143.102 269.452 141.574L268.114 141.001L266.489 143.197L265.385 140.28C265.385 140.28 265.22 145.331 262.775 145.984L260.982 142.723C260.982 142.723 254.622 151.526 250.216 152.013C250.216 152.013 249.075 150.548 251.033 147.449C252.991 144.35 257.067 136.693 257.067 136.693C257.067 136.693 248.097 141.745 241.578 139.14C241.578 139.14 241.74 136.206 247.447 135.88L254.302 129.972L249.244 125.611L253.646 124.624C253.646 124.624 248.917 120.385 248.1 117.615L254.625 119.733C254.625 119.733 249.244 115.172 249.731 109.468C249.731 109.468 261.312 119.084 261.8 119.084C262.287 119.084 290.375 117.415 290.375 117.415L297.352 113.044L295.071 102.779L299.962 105.549L302.246 100.333L306.53 108.236L317.735 110.268L322.141 109.61C322.141 109.61 321.152 120.691 320.345 122.16C319.537 123.629 316.433 122.974 316.433 122.974L313.823 123.79L310.234 122.648L310.395 125.094L307.136 124.765L308.56 129.606L306.237 128.151C306.237 128.151 304.365 130.278 304.345 130.294C304.118 130.515 305.683 132.748 305.897 132.975C306.958 134.111 308.695 135.024 310.063 135.745C311.354 136.427 312.824 137.102 313.394 138.445C313.724 139.255 313.684 140.174 313.602 141.05C309.872 141.294 306.382 139.384 302.747 138.508C300.572 137.984 298.327 137.829 296.093 137.678" fill="#FFFEFD"/>
<path d="M290.237 117.467L304.833 130.584L305.73 129.201L306.659 128.697L307.196 128.223L295.836 116.661L292.765 115.511L290.237 117.467Z" fill="#F2994A"/>
<path d="M130.456 45.7373C130.143 45.7373 109.819 51.1547 109.506 51.1547C109.193 51.1547 98.1465 51.9878 98.1465 51.9878L125.14 66.8799L138.013 68.0227L136.292 46.6758L130.031 45.5298" fill="#219653"/>
<path d="M134.055 57.787C133.188 57.5631 107.506 53.677 94.0469 51.655L94.1952 50.667C134.144 56.6739 134.361 56.8188 134.477 56.8945L133.929 57.7178L134.203 57.3062L134.055 57.787Z" fill="#6FCF97"/>
<path d="M108.014 50.6001L135.543 49.2209L135.592 50.2077L108.063 51.5868L108.014 50.6001Z" fill="#6FCF97"/>
<path d="M122.209 59.2432L134.274 58.6767L134.32 59.6636L122.255 60.23L122.209 59.2432Z" fill="#6FCF97"/>
<path d="M101.855 49.9756L102.413 49.1598L117.23 59.2751L116.672 60.0909L101.855 49.9756Z" fill="#6FCF97"/>
<path d="M130.331 47.0118C130.954 48.148 132.338 48.6354 133.165 49.6464C133.24 49.7206 133.287 49.8184 133.297 49.9231C133.281 50.0446 133.215 50.1541 133.116 50.226C132.579 50.7167 131.844 50.9868 131.409 51.5697C130.891 52.258 130.928 53.2361 131.234 54.0429C131.541 54.8498 132.078 55.5446 132.526 56.2823C132.583 56.3586 132.615 56.4506 132.618 56.5458C132.618 56.7533 132.361 56.8488 132.167 56.9212C130.941 57.3625 130.209 58.7029 130.147 60.0037C130.084 61.3045 130.575 62.5691 131.172 63.7317C131.57 64.5089 132.098 65.3256 132.938 65.5693C133.666 65.7801 134.708 65.6582 134.932 66.3794C135.097 66.8965 134.635 67.4827 134.859 67.9767C134.971 68.181 135.145 68.3438 135.357 68.441C135.888 68.7269 136.48 68.8806 137.084 68.8889C137.743 68.8889 138.224 68.52 138.844 68.2895C138.808 68.7332 138.796 69.1784 138.807 69.6233C138.799 69.78 138.837 69.9357 138.916 70.0712C139.022 70.1877 139.161 70.2692 139.315 70.305C139.975 70.5613 140.677 70.692 141.384 70.6903C142.101 70.6855 142.777 70.3575 143.223 69.7978C143.312 69.676 143.421 69.5245 143.569 69.5442C143.667 69.5698 143.752 69.6309 143.807 69.7155C144.233 70.2232 144.794 70.6009 145.425 70.8055C146.044 71.0031 146.848 70.9636 147.191 70.4104C147.639 69.6891 146.977 69.0074 147.059 68.2862C147.086 68.0359 147.244 67.8153 147.29 67.565C147.322 67.1487 147.333 66.731 147.323 66.3136C147.369 65.7076 147.386 65.3519 147.982 65.263C148.579 65.1741 149.432 65.4178 150.045 65.3947C150.971 65.3618 151.423 64.0774 152.352 63.949C152.715 63.9455 153.074 64.0219 153.403 64.173C154.237 64.4529 155.381 64.4002 155.746 63.6032C156.05 62.9446 155.671 62.1937 155.166 61.6898C155.018 61.5416 154.837 61.3605 154.837 61.1629C154.874 60.972 154.979 60.801 155.133 60.6821C155.687 60.1157 156.066 59.266 155.756 58.5382C155.506 57.9487 154.89 57.6194 154.375 57.2209C153.861 56.8224 153.387 56.2329 153.578 55.6105C153.671 55.3798 153.811 55.1711 153.99 54.998L155.288 53.5456C155.664 53.1274 155.384 52.696 155.585 52.1757C155.786 51.6553 155.443 51.0098 155.077 50.5883C154.392 49.8045 153.891 50.1338 153.311 49.271C152.873 48.6124 153.024 48.2633 153.591 47.7133C154.158 47.1633 154.843 46.531 155.209 45.8296C155.575 45.1281 155.147 44.2323 154.768 43.5638C154.389 42.8953 154.316 42.9348 153.591 42.6845C153.463 42.6384 153.884 41.5121 153.792 41.4133C153.463 41.0346 153.594 40.8074 153.657 40.3002C153.72 39.793 153.268 40.2804 152.738 40.2113C152.207 40.1421 151.62 40.287 151.149 40.0367C150.783 39.8424 150.51 38.2979 150.098 38.2617C146.255 37.9324 148.064 42.3387 146.832 43.1719C146.229 43.5803 146.1 42.4276 145.652 41.5846C145.204 40.7415 144.38 40.152 142.271 41.0642C141.015 41.6076 139.565 41.2948 138.201 41.3672C135.98 41.4825 128.209 43.1357 130.331 47.0118Z" fill="#B8EAF8"/>
<path d="M143.484 34.7314C136.721 36.6712 129.926 39.0818 123.029 40.4222C122.346 40.5572 121.611 40.7219 121.167 41.2554C120.665 41.9005 120.741 42.8216 121.341 43.3762C121.496 43.4872 121.643 43.6094 121.78 43.7418C122.439 44.5157 121.473 45.9021 121.285 46.7518C121.078 47.6739 120.903 48.6059 120.718 49.5313C120.24 51.9189 119.789 54.3098 119.38 56.7073C118.985 59.0126 118.612 61.3178 118.392 63.6626C118.299 64.6769 117.891 66.6035 118.524 67.5322C119.604 69.1228 126.762 71.0296 130.809 67.3247L122.386 64.8844L127.863 46.9066L145.692 41.6077" fill="#DBA258"/>
<path d="M143.145 60.8004C143.145 60.8004 147.537 52.9526 157.974 51.6353C157.974 51.6353 155.668 60.2504 143.145 60.8004Z" fill="#6FCF97"/>
<path d="M136.718 55.8047C136.718 55.8047 135.782 64.4791 141.661 68.4837C141.661 68.4837 145.504 62.0619 136.718 55.8047Z" fill="#6FCF97"/>
<path d="M125.697 54.0955C128.771 54.5014 131.897 54.1626 134.813 53.1075C134.813 53.1075 130.858 50.417 126.959 49.7583" fill="#6FCF97"/>
<path d="M124.627 59.5293C124.627 59.5293 127.207 68.0358 136.161 69.2971C136.161 69.2971 134.184 60.9553 124.627 59.5293Z" fill="#6FCF97"/>
<path d="M106.788 52.7451C106.788 52.7451 105.799 61.5809 113.527 66.2738C113.527 66.2804 115.01 57.8299 106.788 52.7451Z" fill="#6FCF97"/>
<path d="M120.758 49.4026C120.593 49.3466 115.376 51.2139 115.376 51.2139L120.098 52.5312" fill="#9DD87D"/>
<path d="M130.057 46.4849C129.685 45.6835 129.73 44.7507 130.177 43.9885C130.624 43.2263 131.417 42.7317 132.298 42.6647C133.755 42.5528 135.314 43.6033 136.582 42.8953C136.978 42.6272 137.335 42.3058 137.643 41.9402C138.576 41.0016 140.016 40.3957 141.236 40.9127C142.389 41.4001 143.051 42.757 144.261 43.0797C144.63 43.1598 145.008 43.1875 145.385 43.162L148.156 43.106" fill="#B8EAF8"/>
<path d="M138.649 51.8593C138.649 51.8593 140.627 43.2705 148.111 41.1562C148.111 41.1562 146.832 49.61 138.649 51.8593Z" fill="#6FCF97"/>
<path d="M146.19 71.5235C145.771 71.5124 145.357 71.4289 144.967 71.2765C144.342 71.0904 143.793 70.7111 143.398 70.1931C143.197 70.4435 142.957 70.6593 142.686 70.832C141.819 71.3457 140.774 71.4655 139.813 71.1613C139.269 71.036 138.803 70.6867 138.531 70.1997C138.356 69.7756 138.325 69.306 138.442 68.8626C138.653 67.8556 139.144 66.9286 139.859 66.1885L140.567 66.8768C139.976 67.4853 139.57 68.2495 139.397 69.0799C139.285 69.3228 139.299 69.6055 139.437 69.8355C139.574 70.0654 139.816 70.2128 140.083 70.2293C140.771 70.4481 141.52 70.3643 142.143 69.9988C142.597 69.7086 142.907 69.2395 142.996 68.7078C142.996 68.5399 142.996 68.3785 142.996 68.2369L143.985 68.1908C144.008 68.3789 144.008 68.5691 143.985 68.7572C143.975 69.0539 144.043 69.3479 144.183 69.6102C144.457 69.9747 144.848 70.235 145.29 70.3478C145.886 70.5652 146.318 70.5948 146.608 70.4368C147.086 70.1865 147.168 69.4126 146.921 68.8889C146.615 68.2303 145.932 67.7462 145.352 67.3181L145.932 66.5178C146.592 66.992 147.402 67.5815 147.818 68.4707C148.259 69.4159 148.098 70.776 147.069 71.3128C146.798 71.4531 146.496 71.5254 146.19 71.5235Z" fill="#EAF9FD"/>
<path d="M149.455 66.228H149.379C148.719 66.2093 148.093 65.927 147.642 65.4443C146.882 64.5218 146.739 63.238 147.276 62.1708L148.166 62.6022C147.8 63.3068 147.883 64.1608 148.377 64.7823C148.647 65.0657 149.018 65.2304 149.409 65.2401C149.723 65.2567 150.031 65.1477 150.265 64.9371C150.589 64.5827 150.873 64.194 151.112 63.7779C151.33 63.4255 151.442 63.2641 151.673 63.218L151.884 63.1752L152.065 63.3036C152.57 63.62 153.14 63.8181 153.732 63.8833C154.479 64.0084 154.943 63.8646 155.123 63.4518C155.199 63.2457 155.199 63.0191 155.123 62.8129C154.919 62.3138 154.561 61.8927 154.101 61.6109C153.891 61.4527 153.795 61.1847 153.858 60.9292C153.92 60.6732 154.133 60.4819 154.395 60.4484C154.712 60.4109 155.006 60.2655 155.229 60.0367C155.503 59.7413 155.6 59.3224 155.482 58.9368C155.384 58.6935 155.227 58.4784 155.024 58.3111C154.469 57.8135 153.75 57.5369 153.004 57.5339V56.5459C153.993 56.5501 154.947 56.9169 155.683 57.5767C156.011 57.8524 156.263 58.2072 156.415 58.6075C156.659 59.3399 156.48 60.147 155.95 60.7086C155.741 60.9317 155.489 61.1108 155.209 61.2355C155.603 61.5777 155.899 62.0188 156.066 62.5133C156.208 62.9435 156.193 63.4104 156.023 63.8306C155.654 64.6901 154.777 65.0524 153.561 64.8482C152.99 64.7679 152.434 64.6014 151.913 64.3542C151.645 64.8157 151.325 65.2445 150.958 65.632C150.555 66.0216 150.015 66.236 149.455 66.228Z" fill="#EAF9FD"/>
<path d="M155.713 52.7288L154.915 52.1426C155.216 51.7377 155.213 51.1829 154.908 50.7816C154.602 50.3802 154.068 50.2289 153.597 50.4103C153.435 50.4727 153.252 50.4505 153.11 50.351C152.849 50.1732 152.849 49.8933 152.852 49.5409C152.872 49.2516 152.837 48.9612 152.75 48.6847C152.529 48.2401 151.847 48.1281 151.313 48.2763C150.185 48.6306 149.468 49.7369 149.606 50.9109L148.618 51.0591C148.401 49.3887 149.426 47.8069 151.04 47.3213C151.969 47.0611 153.156 47.2982 153.627 48.2434C153.774 48.5955 153.842 48.9753 153.828 49.3565C154.656 49.2895 155.447 49.7123 155.851 50.4378C156.254 51.1634 156.197 52.0578 155.703 52.7255L155.713 52.7288Z" fill="#EAF9FD"/>
<path d="M155.789 46.692L155.186 45.9082C155.683 45.527 155.837 44.8453 155.551 44.2878C155.266 43.7302 154.623 43.456 154.022 43.6359L153.736 42.6907C154.037 42.5633 154.268 42.3111 154.368 41.9999C154.468 41.6886 154.427 41.3493 154.256 41.0704C154.042 40.8184 153.719 40.6848 153.39 40.7115C153.058 40.7079 152.745 40.8665 152.552 41.1363L151.705 40.6292C151.831 40.3842 151.851 40.0989 151.762 39.8388C151.676 39.5315 151.471 39.2716 151.191 39.1176C150.592 38.8493 149.888 38.9999 149.451 39.4897C149.004 40.0255 148.869 40.756 149.095 41.4162L148.153 41.7192C147.823 40.7237 148.035 39.6282 148.713 38.8277C149.455 38.0058 150.649 37.7675 151.649 38.2415C152.166 38.5207 152.548 38.9953 152.711 39.5588C152.736 39.6477 152.757 39.7379 152.773 39.8289C152.961 39.7707 153.156 39.7375 153.353 39.7301C154.008 39.6735 154.646 39.9566 155.044 40.4799C155.441 41.0033 155.542 41.6937 155.311 42.3087C155.263 42.4581 155.199 42.6017 155.12 42.7368C155.686 42.9227 156.158 43.3204 156.438 43.8467C156.912 44.8304 156.642 46.0108 155.789 46.692Z" fill="#EAF9FD"/>
<path d="M141.111 59.7302C140.481 59.7294 139.882 59.4598 139.463 58.9892L140.212 58.3306C140.477 58.6442 140.888 58.7949 141.294 58.7274C141.699 58.6598 142.039 58.384 142.189 58.0012C142.263 57.7737 142.311 57.5383 142.331 57.2998C142.353 57.0781 142.389 56.8581 142.439 56.6411C142.482 56.4333 142.589 56.2442 142.746 56.101C142.956 55.9499 143.213 55.8776 143.471 55.8969C143.817 55.8969 144.413 55.8508 144.637 55.4984C144.784 55.196 144.729 54.8344 144.499 54.5894C144.199 54.289 143.804 54.1007 143.382 54.0559L142.64 53.9407L143.036 53.3051C143.277 52.9833 143.443 52.6121 143.524 52.2183C143.54 51.9011 143.42 51.5921 143.194 51.3686C142.887 51.0398 142.454 50.8567 142.004 50.8648C141.011 50.9674 140.114 51.5009 139.549 52.3237L138.702 51.8165C139.44 50.7079 140.641 49.9943 141.968 49.8768C142.701 49.8651 143.405 50.1586 143.912 50.6869C144.341 51.114 144.56 51.7076 144.512 52.3105C144.477 52.6406 144.377 52.9605 144.219 53.2524C144.619 53.3908 144.977 53.6302 145.257 53.9473C145.771 54.5225 145.86 55.3618 145.478 56.0319C145.115 56.595 144.433 56.8881 143.474 56.8848H143.405C143.365 57.0573 143.336 57.2322 143.319 57.4085C143.291 57.7311 143.221 58.0488 143.112 58.3536C142.823 59.0451 142.202 59.5418 141.464 59.6709C141.348 59.7009 141.23 59.7208 141.111 59.7302Z" fill="#EAF9FD"/>
<path d="M135.142 64.8843C134.879 64.8862 134.618 64.8312 134.378 64.723C133.687 64.4101 133.308 63.6594 133.465 62.9183L134.421 63.1685C134.384 63.4457 134.534 63.714 134.79 63.8272C135.118 63.9544 135.487 63.9125 135.778 63.7152C136.12 63.4838 136.388 63.1591 136.55 62.7799L136.84 62.1707L137.334 62.635C137.814 63.0735 138.487 63.233 139.114 63.0566C139.389 62.9831 139.633 62.8225 139.809 62.5988C139.951 62.4109 139.998 62.1672 139.934 61.9402L140.867 61.6108C141.037 62.1418 140.943 62.7221 140.613 63.1718C140.31 63.572 139.884 63.8622 139.4 63.9984C138.642 64.2173 137.828 64.1161 137.146 63.7185C136.927 64.0538 136.638 64.338 136.299 64.5517C135.953 64.7694 135.552 64.8848 135.142 64.8843Z" fill="#EAF9FD"/>
<path d="M136.045 49.8479L135.386 49.1003C135.748 48.7285 135.905 48.203 135.805 47.6941C135.795 47.5522 135.745 47.4161 135.66 47.3022C135.518 47.1573 135.182 47.1573 134.839 47.177L134.042 47.2264L134.355 46.492C134.523 46.1001 134.684 45.6984 134.556 45.4217C134.408 45.0924 133.847 44.9739 133.412 44.9903C132.984 44.974 132.563 45.1041 132.219 45.3592C131.974 45.5549 131.887 45.8886 132.005 46.1792L131.165 46.6995C130.726 46.0013 131.026 45.0924 131.567 44.6182C132.081 44.2078 132.722 43.9899 133.379 44.0023C134.385 43.9661 135.169 44.3514 135.462 45.0298C135.611 45.405 135.628 45.8192 135.512 46.2055C135.837 46.2414 136.14 46.3865 136.372 46.6172C136.604 46.8765 136.748 47.2028 136.784 47.5492C136.939 48.3907 136.662 49.254 136.045 49.8479Z" fill="#EAF9FD"/>
<path d="M144.964 51.0798L144.15 50.5233C144.434 50.1085 144.667 49.6606 144.842 49.1895C144.939 48.9844 144.976 48.7559 144.948 48.5308C144.859 48.1752 144.312 47.9644 143.847 47.8228L143.3 47.6548L143.547 47.1345C143.762 46.6794 143.875 46.1824 143.877 45.6789C143.894 45.5303 143.862 45.3803 143.788 45.2508C143.684 45.1679 143.56 45.1134 143.428 45.0927C142.369 44.837 141.252 44.9763 140.288 45.4846C140.162 45.5418 140.056 45.6359 139.985 45.7546C139.989 45.7396 139.989 45.7235 139.985 45.7085L139.072 46.0938C138.851 45.5702 139.151 44.9741 139.826 44.6119C141.011 43.9994 142.378 43.8401 143.672 44.164C144.003 44.2273 144.307 44.3905 144.542 44.6316C144.779 44.9413 144.896 45.3261 144.872 45.7151C144.869 46.1798 144.792 46.6411 144.644 47.0818C145.139 47.286 145.735 47.645 145.907 48.3168C145.987 48.7329 145.939 49.1637 145.768 49.5517C145.564 50.0924 145.294 50.6057 144.964 51.0798Z" fill="#EAF9FD"/>
<path d="M112.822 50.6114C112.822 50.3644 115.413 47.0975 119.743 44.6309L117.317 50.674" fill="#6FCF97"/>
<path d="M83.5644 42.6448L82.9844 41.8445C86.8138 39.0716 91.6978 38.7621 96.7828 38.6764C101.242 38.6007 106.29 38.5118 110.14 35.999L110.683 36.8256C106.594 39.4965 101.39 39.5854 96.7993 39.6644C91.879 39.7467 87.1631 40.0398 83.5644 42.6448Z" fill="#219653"/>
<path d="M68.3326 66.2143C67.3287 65.6915 66.2622 65.2986 65.159 65.0452C64.892 64.9728 64.6284 64.9003 64.3647 64.8213C58.7402 63.1648 53.7178 59.9123 49.9072 55.4586L50.6619 54.8164C54.3452 59.1251 59.202 62.2715 64.6416 63.8728L65.4226 64.0935C66.6074 64.3693 67.7524 64.7942 68.8302 65.3581L68.3326 66.2143Z" fill="#219653"/>
<path d="M90.0498 77.6456C90.0498 77.6456 96.8979 75.5413 105.46 79.4899C105.453 79.4899 98.203 83.3067 90.0498 77.6456Z" fill="#6FCF97"/>
<path d="M43.2501 35.5645C43.2501 35.5645 28.1137 36.9707 18.5039 24.7297C18.5039 24.7297 32.5 22.0194 43.2501 35.5645Z" fill="#6FCF97"/>
<path d="M54.2605 58.8809C54.2605 58.8809 58.604 64.5782 57.8526 73.9705C57.8526 73.9705 51.7658 68.4938 54.2605 58.8809Z" fill="#219653"/>
<path d="M64.7305 51.5761C64.7305 51.5761 72.9495 46.6362 85.3506 48.6484C85.3506 48.6484 77.1678 55.8277 64.7305 51.5761Z" fill="#6FCF97"/>
<path d="M108.05 29.3564C108.05 29.3564 104.702 35.6861 95.8564 38.9464C95.8564 38.9464 98.2721 31.1282 108.05 29.3564Z" fill="#219653"/>
<path d="M-5.22755 69.7781L-5.30664 68.7902C3.34436 68.0818 11.6034 64.8784 18.4674 59.5691C18.7903 59.3166 19.1133 59.0597 19.4362 58.7985C20.8401 57.6755 22.2902 56.5129 23.9808 55.7588L24.3828 56.6611C22.8109 57.3626 21.4169 58.4856 20.0558 59.5691C19.7262 59.8325 19.3967 60.0927 19.0671 60.3463C12.0542 65.7757 3.61402 69.0525 -5.22755 69.7781Z" fill="#219653"/>
<path d="M5.875 67.2189C5.875 67.2189 16.1801 63.6556 29.4084 69.1949C29.4084 69.208 18.5925 75.3961 5.875 67.2189Z" fill="#219653"/>
<path d="M109.493 36.8126C109.415 37.2041 109.464 37.6107 109.635 37.9718C109.8 38.2236 110.027 38.4288 110.294 38.5679C111.918 39.4683 113.891 39.4683 115.514 38.5679C115.975 38.341 116.349 37.9682 116.576 37.5074C116.791 37.0271 116.641 36.4617 116.216 36.1506C115.96 36.0407 115.693 35.958 115.419 35.9036C115.155 35.818 114.885 35.6039 114.901 35.324C114.918 35.0441 115.195 34.8728 115.429 34.7279C115.889 34.4422 116.305 34.0892 116.661 33.6807C116.803 33.5421 116.898 33.3623 116.931 33.1669C116.964 32.7619 116.523 32.4754 116.121 32.4194C115.719 32.3634 115.29 32.4194 114.911 32.2844C115.811 31.6883 116.661 30.4797 115.389 30.0351C114.457 29.7057 113.379 30.6213 112.71 31.1449C110.93 32.5351 109.774 34.5728 109.493 36.8126Z" fill="#B8EAF8"/>
<path d="M307.763 112.436C307.505 112.59 307.332 112.853 307.292 113.15C307.136 113.541 307.136 113.977 307.292 114.369C307.562 114.797 308.119 114.941 308.564 114.698C308.99 114.431 309.184 113.911 309.035 113.43C308.868 112.961 308.454 112.623 307.961 112.554" fill="black"/>
<path d="M320.982 109.616C320.64 109.715 320.372 109.981 320.27 110.321C320.235 110.612 320.284 110.907 320.411 111.171C320.741 112.109 321.127 113.081 321.842 113.782C322.081 112.649 322.242 111.5 322.323 110.344C322.379 109.448 321.707 109.373 320.982 109.616Z" fill="black"/>
<path d="M296.902 112.913L299.689 105.018L300.621 105.347L297.835 113.242L296.902 112.913Z" fill="black"/>
<path d="M256.942 136.008L256.514 135.119C256.911 134.92 257.251 134.623 257.502 134.256C256.103 133.904 254.802 133.237 253.699 132.307L253.096 131.796L253.818 131.467C254.217 131.292 254.622 131.138 255.034 130.996C253.788 130.423 252.694 129.405 251.663 128.361L249.784 126.481L250.486 125.783L252.361 127.663C253.782 129.086 255.327 130.472 257.104 130.476L257.189 131.464C256.446 131.595 255.716 131.791 255.008 132.05C256.005 132.732 257.136 133.196 258.326 133.41L258.919 133.515L258.702 134.075C258.376 134.916 257.749 135.605 256.942 136.008Z" fill="black"/>
<path d="M306.609 139.585L305.772 139.219C305.196 138.984 304.667 138.65 304.207 138.231C303.02 137.695 302.108 136.693 301.686 135.462L302.621 135.132C302.965 136.134 303.72 136.942 304.698 137.352L304.826 137.405L304.905 137.513C305.024 137.643 305.162 137.754 305.314 137.843C305.133 136.763 304.932 135.62 304.734 134.48C304.47 132.965 304.207 131.451 303.976 130.077L304.965 129.913C305.195 131.286 305.459 132.797 305.723 134.309C305.986 135.821 306.243 137.306 306.471 138.666L306.609 139.585Z" fill="black"/>
<path d="M294.166 140.003C293.546 138.644 293.318 137.138 293.507 135.656L294.495 135.781C294.334 137.082 294.531 138.402 295.065 139.598L294.166 140.003Z" fill="black"/>
<path d="M268.516 141.518C268.14 141.284 268.298 140.935 268.466 140.57C268.694 140.069 269.389 138.548 269.356 137.935L270.345 137.886C270.384 138.627 269.897 139.806 269.356 140.972C269.297 141.1 269.254 141.195 269.237 141.238L268.783 141.067L269.165 141.396L268.516 141.518Z" fill="black"/>
<path d="M245.157 138.11C245.36 138.047 245.544 137.934 245.691 137.78C245.945 137.497 245.918 137.066 245.879 136.687C245.724 135.222 243.091 136.394 242.659 137.165C241.69 138.91 244.244 138.432 245.157 138.11Z" fill="black"/>
<path d="M251.841 148.655C252.39 148.041 252.73 147.268 252.813 146.448C252.845 146.29 252.811 146.126 252.717 145.994C252.624 145.914 252.509 145.865 252.388 145.852C252.035 145.776 251.62 145.72 251.359 145.971C251.278 146.06 251.212 146.163 251.165 146.274C250.924 146.768 250.292 147.92 250.364 148.513C250.456 149.389 251.336 149.211 251.841 148.655Z" fill="black"/>
<path d="M306.81 146.57C306.447 146.51 306.372 145.954 306.635 145.697C306.932 145.47 307.324 145.408 307.677 145.532C308.267 145.688 308.782 146.048 309.13 146.55C309.374 146.902 309.512 147.416 309.229 147.739C309.026 147.938 308.735 148.019 308.458 147.953C308.189 147.887 307.934 147.776 307.703 147.624L306.54 146.922" fill="black"/>
<path d="M296.439 116.865C295.918 117.49 295.455 118.163 295.059 118.874C294.989 119.002 294.93 119.18 295.042 119.272C295.102 119.309 295.173 119.325 295.243 119.318H297.494C297.561 119.311 297.628 119.326 297.685 119.361C297.774 119.427 297.771 119.555 297.758 119.664L297.603 121.06C297.562 121.239 297.579 121.426 297.652 121.594C297.822 121.807 298.081 121.929 298.354 121.923C299.538 122.071 300.736 122.071 301.92 121.923" fill="#FFFEFD"/>
<path d="M299.231 122.697C298.816 122.697 298.403 122.657 297.995 122.579C297.754 122.545 297.527 122.447 297.336 122.295C296.868 121.887 296.928 121.209 297.191 120.715C297.244 120.616 297.303 120.52 297.366 120.428C297.464 120.286 297.538 120.127 297.583 119.96H297.518L294.028 119.819L294.383 119.131C294.585 118.735 294.739 118.373 294.888 118.024C295.084 117.519 295.325 117.032 295.606 116.568C294.805 116.495 294.01 116.367 293.227 116.186C292.699 116.078 292.202 115.976 291.721 115.906L291.859 114.918C292.373 114.991 292.907 115.103 293.428 115.208C294.496 115.432 295.6 115.659 296.582 115.567L297.9 115.439L296.987 116.397C296.458 116.981 296.05 117.664 295.787 118.406C295.721 118.564 295.652 118.725 295.58 118.89L297.557 118.969C297.816 118.961 298.07 119.042 298.276 119.2C298.512 119.418 298.622 119.742 298.569 120.059C298.511 120.377 298.384 120.679 298.196 120.942C298.147 121.018 298.101 121.093 298.058 121.172C297.989 121.282 297.961 121.413 297.979 121.541C298.041 121.571 298.108 121.59 298.177 121.597C298.663 121.693 299.159 121.722 299.653 121.683L299.732 122.671C299.561 122.691 299.396 122.697 299.231 122.697Z" fill="black"/>
<path d="M328.192 129.922C325.677 128.552 322.83 127.001 320.941 124.515L320.447 123.856C319.693 122.772 318.833 121.765 317.88 120.85L318.539 120.112C319.542 121.07 320.448 122.126 321.241 123.263L321.732 123.922C323.502 126.227 326.251 127.739 328.676 129.063L328.192 129.922Z" fill="#219653"/>
<path d="M327.757 131.332C327.542 130.249 327.618 128.981 328.432 128.233C328.892 127.865 329.428 127.605 330.001 127.472C330.897 127.192 331.879 126.939 332.749 127.285C333.619 127.63 334.166 128.862 333.517 129.54C333.257 129.814 332.812 130.13 333.02 130.446C333.139 130.573 333.299 130.654 333.471 130.677C334.195 130.928 334.636 131.659 334.522 132.415L333.379 132.468C333.023 133.456 333.89 134.655 333.412 135.603C333.22 135.944 332.916 136.208 332.552 136.351C329.51 137.688 328.175 133.463 327.757 131.332Z" fill="#B8EAF8"/>
<path d="M312.083 101.406C312.083 101.406 322.823 110.759 331.734 106.725C331.747 106.725 327.44 98.722 312.083 101.406Z" fill="#219653"/>
<path d="M220.925 74.9844C219.393 73.9964 217.409 72.8668 215.343 71.8031L215.798 70.9238C217.89 72.004 219.9 73.1501 221.459 74.1545L220.925 74.9844Z" fill="#FFBE71"/>
<path d="M220.168 76.8188C219.393 76.417 218.151 75.7254 216.948 75.0569C215.933 74.4905 214.885 73.9076 214.163 73.5255L214.628 72.6528C215.356 73.0381 216.411 73.6408 217.429 74.1941C218.625 74.8527 219.861 75.5476 220.622 75.9395L220.168 76.8188Z" fill="#FFBE71"/>
<path d="M219.379 78.8639C219.103 78.7223 217.636 78.0011 216.17 77.2766L212.953 75.6892L213.398 74.8066L216.608 76.3907C218.078 77.1152 219.547 77.8397 219.824 77.9813L219.379 78.8639Z" fill="#FFBE71"/>
<path d="M213.477 78.5474L213.872 77.6417L218.612 79.7062L218.217 80.6119L213.477 78.5474Z" fill="#FFBE71"/>
<path d="M23.9278 52.5442C23.2422 53.2817 22.6163 54.0724 22.0559 54.9088C21.7025 55.3774 21.4541 55.9165 21.3276 56.4896C21.2096 57.0733 21.4163 57.6753 21.868 58.0637C22.4052 58.4589 23.1434 58.3568 23.7959 58.2383L28.1658 57.4479C28.4887 57.363 28.8266 57.3518 29.1545 57.415C29.7905 57.5862 30.1629 58.2877 30.1695 58.943C30.1353 59.5995 29.96 60.2408 29.6554 60.8235C30.6271 60.6512 31.5602 60.3065 32.4105 59.8059C32.6942 59.6599 32.9392 59.4489 33.1256 59.19C33.5046 58.5972 33.2574 57.7706 32.7532 57.2766C32.2121 56.8241 31.5756 56.4998 30.8912 56.3282C31.6482 56.2979 32.3918 56.1188 33.0795 55.8013C33.7386 55.439 34.2757 54.731 34.1933 53.9801C34.0978 53.1041 33.2245 52.5047 32.3643 52.3335C31.5042 52.1622 30.6078 52.2511 29.7279 52.1326C31.3673 51.5838 32.4932 50.0753 32.5522 48.3486C32.5815 48.1323 32.5112 47.9144 32.361 47.7559C32.2155 47.6647 32.0444 47.6231 31.8733 47.6373C30.6243 47.6143 29.2138 47.6373 28.3668 48.5693C29.5928 45.276 24.9428 44.4198 24.4847 46.7745C24.2804 47.8086 25.6447 48.3618 25.7304 49.4091C25.8359 50.677 24.7121 51.6913 23.9278 52.5442Z" fill="#B8EAF8"/>
<path d="M69.3767 64.8775C69.1319 64.8516 68.8844 64.8797 68.6516 64.9598C68.3151 65.1328 68.0613 65.4326 67.9464 65.793C66.9577 68.2498 69.1756 71.0128 68.533 73.5782C69.2896 73.6384 70.0118 73.2524 70.3818 72.5903C70.7374 71.9393 70.9275 71.211 70.9355 70.4694C70.8051 71.1318 70.8333 71.8157 71.0178 72.4651C71.2179 73.1248 71.8003 73.5959 72.4876 73.654C72.7681 73.6724 73.0357 73.5342 73.183 73.295C73.2408 73.1451 73.2645 72.9842 73.2522 72.8241V69.9655C73.3906 70.6571 74.1156 71.049 74.7846 71.2828C75.4536 71.5167 76.1984 71.7044 76.6038 72.2708C76.5748 71.119 76.2733 69.9905 75.7239 68.9776C76.0007 69.488 77.9055 70.1467 78.4657 70.3541C79.9421 65.7173 72.3064 64.9631 69.3767 64.8775Z" fill="#B8EAF8"/>
<path d="M193.52 117.906C192.433 117.339 191.278 116.914 190.083 116.641L189.226 116.401C188.296 116.127 187.361 115.808 186.444 115.449C185.414 115.04 184.404 114.579 183.419 114.069C179.691 112.133 176.372 109.497 173.645 106.303L174.399 105.665C177.047 108.761 180.269 111.318 183.887 113.193C184.84 113.682 185.818 114.122 186.817 114.51C187.703 114.863 188.61 115.169 189.513 115.432L190.356 115.673C191.632 115.968 192.865 116.425 194.024 117.033L193.52 117.906Z" fill="#219653"/>
<path d="M178.314 110.024C178.314 110.024 183 116.17 182.19 126.306C182.19 126.306 175.622 120.398 178.314 110.024Z" fill="#219653"/>
<path d="M197.069 97.4775L193.275 98.5544C193.275 98.5544 191.516 97.8958 191.117 100.201C191.011 100.81 190.165 101.462 189.766 101.874C188.443 103.175 187.287 104.635 186.325 106.221C185.297 107.963 184.035 109.458 182.783 111.036C182.315 111.622 182.318 112.126 182.212 112.847C182.058 113.658 181.974 114.481 181.962 115.307C181.962 116.068 181.992 116.901 182.502 117.468C183.013 118.034 183.896 118.169 184.681 118.162C186.401 118.146 188.441 117.787 189.644 116.559C189.202 116.374 188.573 116.262 188.115 116.081C187.785 115.943 187.749 115.847 187.739 115.393C187.739 115.235 187.666 115.087 187.808 115.017C188.049 114.896 188.467 115.063 188.856 115.192C189.245 115.32 189.845 115.495 189.845 115.495C189.89 115.09 189.844 114.681 189.71 114.296C189.446 113.685 189.114 113.105 188.721 112.567C188.498 112.292 188.313 111.989 188.171 111.665C188.028 111.339 188.021 110.969 188.151 110.637C188.303 110.358 188.52 110.118 188.784 109.939C189.863 109.039 190.863 108.047 191.773 106.975L194.544 103.88L198.786 103.165" fill="#DBA258"/>
<path d="M215.751 84.7557C215.695 84.5383 215.636 84.3209 215.58 84.097C215.366 83.2803 215.376 82.5656 214.921 81.7917C214.169 80.4701 212.768 79.6511 211.246 79.6445C208.811 79.6445 206.837 81.6205 206.837 84.7589V84.805L204.102 84.3209L206.366 89.9952L205.113 97.8661L213.296 97.9846L212.265 95.0536C211.909 94.0426 210.353 91.3586 212.008 90.8613C212.508 90.7065 213.049 90.8086 213.576 90.8284C214.104 90.8482 214.69 90.7527 215.01 90.3377C215.219 90.0044 215.317 89.6136 215.29 89.2213C215.29 88.8195 215.122 87.9666 215.405 87.6274C215.516 87.5218 215.652 87.4469 215.801 87.41L216.262 87.2519C216.32 87.2387 216.371 87.2062 216.407 87.1597C216.427 87.1032 216.427 87.0417 216.407 86.9852C216.223 86.2343 215.956 85.5065 215.751 84.7557Z" fill="#DBA258"/>
<path d="M206.794 90.295C206.613 90.5964 206.403 90.8799 206.168 91.1414C206.362 90.9174 204.28 88.5595 204.085 88.1445C203.482 86.9184 203.208 85.5565 203.291 84.1926C203.564 80.4416 206.329 80.7709 206.329 80.7709C206.329 80.7709 206.547 79.1671 208.583 78.6073C210.62 78.0474 214.934 78.6468 215.972 81.5218C216.223 82.2101 214.829 82.5855 214.446 82.681C213.402 82.9379 212.281 82.714 211.289 83.1421C210.284 83.5682 209.54 84.4456 209.285 85.5066C209.243 85.9 209.15 86.2863 209.009 86.656C208.85 87.0331 208.44 87.2385 208.043 87.1401C208.001 86.6391 207.855 86.1524 207.615 85.7108C207.358 85.2624 206.864 85.0049 206.349 85.0522C205.774 85.2051 205.387 85.7431 205.426 86.3365C205.483 86.9148 205.754 87.4512 206.184 87.8415C206.526 88.1123 206.811 88.4481 207.021 88.8295C207.182 89.3264 207.098 89.8702 206.794 90.295Z" fill="black"/>
<path d="M219.706 105.536C221.02 105.823 221.86 107.111 221.591 108.428L220.603 114.286C220.491 114.829 220.566 115.393 220.817 115.887L223.684 120.082C224.001 120.703 224.039 121.429 223.786 122.078C223.127 123.754 221.809 126.962 220.995 127.677C219.861 128.665 218.283 124.835 218.757 122.207C218.909 121.377 216.355 116.002 216.355 116.002C215.508 115.429 215.105 114.391 215.343 113.397L216.786 107.371C217.095 106.065 218.395 105.248 219.706 105.536Z" fill="#DBA258"/>
<path d="M204.622 135.33C204.527 135.715 202.032 138.643 202.032 138.643L182.674 139.631L183.059 136.338L197.27 131.27L204.622 135.33Z" fill="#DBA258"/>
<path d="M217.244 134.243L224.138 149.461L226.811 149.224L223.815 132.221L217.63 130.858L217.244 134.243Z" fill="#DBA258"/>
<path d="M199.96 117.945L194.957 131.645L205.401 136.384L209.5 127.742L214.625 135.679L224.172 132.221L217.574 117.691L199.314 117.882" fill="#FFFEFD"/>
<path d="M193.773 97.7143L205.842 94.9546L205.941 95.2016C206.465 96.5193 207.746 97.3797 209.165 97.3673C210.584 97.3549 211.849 96.4723 212.35 95.1456L215.145 95.6725C218.728 96.3483 221.465 99.2589 221.917 102.875L222.807 109.978L217.831 110.146L217.706 118.096L199.31 118.04L199.705 105.437L196.126 106.231L193.773 97.7143Z" fill="#EAF9FD"/>
<path d="M194.627 116.496C194.362 116.469 194.095 116.499 193.843 116.585C192.195 117.273 192.986 121.376 193.731 122.48C194.39 123.468 195.543 124.041 196.39 124.897C196.947 125.533 197.463 126.204 197.936 126.906C198.008 127.001 198.1 127.107 198.222 127.1C198.33 127.078 198.422 127.009 198.473 126.912C199.385 125.564 199.3 123.776 198.265 122.519L201.561 123.217C202.002 123.313 202.642 123.27 202.681 122.822C202.673 122.626 202.594 122.44 202.457 122.299C201.877 121.541 201.262 120.811 200.612 120.109C201.853 120.399 203.158 120.243 204.296 119.667C204.425 119.62 204.531 119.525 204.589 119.4C204.678 119.15 204.411 118.933 204.177 118.808C201.225 117.237 197.946 116.608 194.627 116.496Z" fill="#B8EAF8"/>
<path d="M216.815 102.253L217.802 102.19L218.312 110.117L217.326 110.18L216.815 102.253Z" fill="#B8EAF8"/>
<path d="M164.265 24.2783C164.527 24.2789 164.786 24.2262 165.026 24.1235C165.412 23.9097 165.686 23.5399 165.778 23.1092C165.858 22.7761 165.875 22.4309 165.827 22.0916C165.841 21.7837 166.015 21.5053 166.285 21.3572C166.58 21.208 166.862 21.0351 167.129 20.8402C166.833 20.5205 166.62 20.1341 166.506 19.7139C166.447 19.4998 166.417 19.2825 166.378 19.0552C166.341 18.7987 166.266 18.5491 166.157 18.3143C166.045 18.0969 166.107 18.1331 166.088 18.1331H164.555H162.957H158.841C158.309 18.1331 157.878 18.5637 157.878 19.0948V19.9708C157.972 21.4189 159.175 22.5456 160.627 22.5461C160.789 22.5457 160.952 22.5302 161.111 22.5C160.48 23.5767 159.432 24.3452 158.215 24.6241L156.326 31.4774C157.11 32.4262 158.249 33.0119 159.477 33.0972C160.705 33.1825 161.914 32.76 162.822 31.9285L162.986 31.7738C162.917 30.5487 161.83 24.9007 163.421 24.3672C163.698 24.3014 163.981 24.2715 164.265 24.2783Z" fill="#DBA258"/>
<path d="M170.622 22.5692C169.171 22.567 167.971 21.4407 167.877 19.9939H167.861V18.5086C167.861 18.4691 167.861 18.4296 167.861 18.3901C167.861 14.3087 164.55 11 160.465 11C160.204 10.9993 159.944 11.0136 159.684 11.0428C153.845 11.4183 152.622 17.6623 152.622 20.1157C152.622 22.6457 154.674 24.6966 157.206 24.6966H159.398C160.909 24.6623 162.295 23.8519 163.066 22.5527L163.082 22.5264C162.922 22.5566 162.76 22.5721 162.598 22.5725C161.145 22.5721 159.943 21.4453 159.849 19.9972V19.1212C159.849 18.5901 160.28 18.1595 160.811 18.1595H162.967H164.565H165.728C165.847 18.1595 166.094 18.1595 166.094 18.1595C166.113 18.2177 166.137 18.274 166.167 18.3275C166.276 18.5623 166.351 18.812 166.388 19.0685C166.427 19.2858 166.457 19.5032 166.516 19.7271C166.63 20.1473 166.843 20.5338 167.139 20.8534C166.872 21.0484 166.59 21.2213 166.295 21.3705C166.025 21.5185 165.851 21.7969 165.837 22.1049C165.885 22.4441 165.868 22.7894 165.788 23.1225C165.696 23.5531 165.422 23.923 165.036 24.1368L165.102 24.1763C167.233 25.2967 169.868 24.5772 171.133 22.5297C170.965 22.5598 170.793 22.5731 170.622 22.5692Z" fill="black"/>
<path d="M165.817 22.1738H164.499C164.725 22.6829 165.267 22.9751 165.817 22.8852V22.1738Z" fill="#FFFEFD"/>
<ellipse cx="164.008" cy="19.5328" rx="0.230527" ry="0.38531" fill="black"/>
<path d="M215.313 88.5034H213.639C213.639 88.5034 213.998 89.5177 215.333 89.4124L215.313 88.5034Z" fill="#FFFEFD"/>
<ellipse cx="213.286" cy="86.0463" rx="0.339204" ry="0.569732" fill="black"/>
<path d="M183.775 136.097L178.453 135.304L177.754 149.722C177.75 149.797 177.785 149.869 177.847 149.911C177.909 149.954 177.989 149.96 178.057 149.929L181.416 148.753L184.652 139.433L184.016 136.255" fill="black"/>
<path d="M223.628 148.678L223.928 154.306L238.428 150.558C238.501 150.54 238.558 150.485 238.581 150.414C238.603 150.343 238.586 150.265 238.537 150.209L236.869 147.225L226.591 146.896L223.724 148.411" fill="black"/>
<path d="M2898.41 135.921C2871.24 136.763 2843.96 137.532 2817.46 136.159C2768.84 133.636 2721.42 123.724 2672.74 125.949C2615.81 128.554 2567.45 147.191 2513.45 156.578C2471.19 163.894 2425.81 165.489 2381.91 161.201C2311.19 154.234 2250.34 132.672 2186.05 116.354C2133.11 102.915 2071.9 96.2612 2010.89 98.391C1980.6 99.4476 1958.63 102.551 1933.11 106.583C1901.75 111.536 1871.34 117.886 1839.7 122.413C1762.98 133.392 1682.01 132.916 1603.46 126.92C1554.13 123.152 1476.58 126.859 1431.48 137.362C1428.39 138.085 1441.25 210.113 1438.23 210.991L2900 215" fill="#6FCF97"/>
<rect opacity="0.5" width="61" height="9" rx="4.5" transform="matrix(-1 0 0 1 2195 132)" fill="#219653"/>
<path d="M2132.99 115.834L2131.12 119.572L2135.99 119.082C2135.99 119.082 2126.41 126.295 2126.58 130.56C2126.75 134.824 2131.12 129.589 2132.3 128.926C2133.48 128.263 2140.02 123.187 2140.02 123.187L2140.53 126.302C2140.53 126.302 2144.9 123.677 2144.56 121.547C2144.23 119.416 2144.56 122.21 2144.56 122.21C2144.56 122.21 2151.49 126.033 2170.28 124.496L2171.66 123.919L2173.34 126.13L2174.47 123.194C2174.47 123.194 2174.64 128.277 2177.16 128.933L2179.01 125.652C2179.01 125.652 2185.56 134.51 2190.1 135C2190.1 135 2191.28 133.525 2189.26 130.407C2187.24 127.289 2183.04 119.585 2183.04 119.585C2183.04 119.585 2192.28 124.668 2199 122.047C2199 122.047 2198.83 119.095 2192.95 118.767L2185.89 112.822L2191.1 108.435L2186.57 107.441C2186.57 107.441 2191.44 103.176 2192.28 100.39L2185.56 102.52C2185.56 102.52 2191.1 97.931 2190.6 92.1919C2190.6 92.1919 2178.67 101.868 2178.17 101.868C2177.66 101.868 2148.73 100.188 2148.73 100.188L2141.54 95.7904L2143.89 85.462L2138.85 88.2487L2136.5 83L2132.08 90.9526L2120.54 92.9971L2116 92.3344C2116 92.3344 2117.02 103.485 2117.85 104.962C2118.68 106.44 2121.88 105.781 2121.88 105.781L2124.57 106.603L2128.27 105.453L2128.1 107.915L2131.46 107.583L2129.99 112.454L2132.39 110.99C2132.39 110.99 2134.31 113.13 2134.33 113.147C2134.57 113.369 2132.96 115.616 2132.74 115.844C2131.64 116.987 2129.85 117.905 2128.44 118.631C2127.11 119.317 2125.6 119.996 2125.01 121.348C2124.67 122.163 2124.71 123.088 2124.8 123.969C2128.64 124.214 2132.24 122.292 2135.98 121.411C2138.22 120.884 2140.53 120.728 2142.84 120.576" fill="#333333"/>
<path d="M2149 99.9467L2134.37 113L2133.47 111.624L2132.54 111.122L2132 110.65L2143.39 99.1438L2146.47 98L2149 99.9467Z" fill="#F2994A"/>
<path d="M2131.38 95C2131.65 95.1297 2131.84 95.3506 2131.88 95.6004C2132.04 95.9291 2132.04 96.2955 2131.88 96.6241C2131.59 96.9841 2131.01 97.1053 2130.55 96.9008C2130.1 96.6764 2129.9 96.2393 2130.05 95.8356C2130.23 95.4415 2130.66 95.1579 2131.18 95.0996" fill="white"/>
<path d="M2117.3 92.1117C2117.63 92.2041 2117.89 92.4517 2117.99 92.7695C2118.02 93.041 2117.98 93.3162 2117.85 93.5625C2117.53 94.4385 2117.16 95.3453 2116.47 96C2116.24 94.9419 2116.08 93.8697 2116 92.791C2115.95 91.9549 2116.6 91.8842 2117.3 92.1117Z" fill="white"/>
<path d="M2142.13 95.5806L2139.27 87.6859L2138.31 88.0146L2141.17 95.9092L2142.13 95.5806Z" fill="white"/>
<path d="M2183.16 119L2183.63 118.043C2183.2 117.829 2182.83 117.51 2182.55 117.115C2184.08 116.736 2185.51 116.019 2186.71 115.018L2187.37 114.469L2186.58 114.115C2186.15 113.927 2185.7 113.76 2185.25 113.608C2186.62 112.992 2187.81 111.897 2188.94 110.774L2191 108.751L2190.23 108L2188.18 110.023C2186.62 111.553 2184.93 113.045 2182.99 113.048L2182.89 114.111C2183.71 114.252 2184.51 114.463 2185.28 114.742C2184.19 115.476 2182.95 115.974 2181.65 116.205L2181 116.318L2181.24 116.92C2181.59 117.825 2182.28 118.566 2183.16 119Z" fill="white"/>
<path d="M2132 122L2132.85 121.66C2133.43 121.441 2133.97 121.13 2134.44 120.741C2135.64 120.241 2136.57 119.309 2137 118.163L2136.05 117.857C2135.7 118.789 2134.93 119.541 2133.94 119.922L2133.81 119.971L2133.73 120.073C2133.61 120.193 2133.47 120.296 2133.32 120.379C2133.5 119.374 2133.7 118.311 2133.9 117.25C2134.17 115.841 2134.44 114.431 2134.67 113.153L2133.67 113C2133.44 114.278 2133.17 115.684 2132.9 117.091C2132.63 118.497 2132.37 119.879 2132.14 121.145L2132 122Z" fill="white"/>
<path d="M2145.11 123C2145.87 121.436 2146.15 119.705 2145.92 118L2144.7 118.144C2144.9 119.64 2144.66 121.158 2144 122.534L2145.11 123Z" fill="white"/>
<path d="M2171.66 124C2172.21 123.807 2171.98 123.519 2171.74 123.217C2171.41 122.803 2170.39 121.547 2170.44 121.041L2169 121C2168.95 121.612 2169.66 122.586 2170.44 123.549C2170.53 123.655 2170.59 123.733 2170.61 123.769L2171.28 123.627L2170.72 123.899L2171.66 124Z" fill="white"/>
<path d="M2195.65 120.743C2195.47 120.691 2195.31 120.598 2195.18 120.472C2194.96 120.24 2194.99 119.885 2195.02 119.575C2195.16 118.371 2197.44 119.334 2197.81 119.967C2198.65 121.4 2196.44 121.008 2195.65 120.743Z" fill="white"/>
<path d="M2188.2 131.44C2187.53 130.703 2187.11 129.776 2187.01 128.792C2186.97 128.602 2187.02 128.405 2187.13 128.247C2187.24 128.151 2187.38 128.092 2187.53 128.077C2187.96 127.986 2188.47 127.919 2188.78 128.219C2188.88 128.327 2188.96 128.449 2189.02 128.583C2189.31 129.176 2190.08 130.559 2189.99 131.27C2189.88 132.321 2188.81 132.108 2188.2 131.44Z" fill="white"/>
<path d="M2131.66 129.317C2132.03 129.246 2132.11 128.58 2131.84 128.273C2131.53 128.001 2131.13 127.927 2130.76 128.076C2130.16 128.261 2129.62 128.693 2129.26 129.294C2129.01 129.715 2128.87 130.33 2129.16 130.717C2129.37 130.955 2129.67 131.052 2129.96 130.973C2130.24 130.895 2130.5 130.761 2130.74 130.579L2131.94 129.739" fill="white"/>
<path d="M2139.5 105C2139.91 105 2140.33 104.964 2140.73 104.893C2140.98 104.863 2141.2 104.775 2141.39 104.638C2141.86 104.271 2141.8 103.66 2141.54 103.216C2141.48 103.127 2141.43 103.041 2141.36 102.958C2141.26 102.83 2141.19 102.688 2141.15 102.537H2141.21L2144.7 102.41L2144.34 101.79C2144.14 101.435 2143.99 101.109 2143.84 100.795C2143.64 100.34 2143.4 99.9017 2143.12 99.4848C2143.92 99.4186 2144.71 99.3038 2145.5 99.141C2146.02 99.0432 2146.52 98.9513 2147 98.8891L2146.86 98C2146.35 98.0652 2145.82 98.166 2145.3 98.2608C2144.23 98.4623 2143.13 98.6668 2142.15 98.5838L2140.83 98.4682L2141.74 99.3307C2142.27 99.856 2142.68 100.47 2142.94 101.138C2143 101.281 2143.07 101.426 2143.15 101.574L2141.17 101.645C2140.91 101.638 2140.66 101.711 2140.45 101.853C2140.22 102.05 2140.11 102.34 2140.16 102.626C2140.22 102.912 2140.35 103.184 2140.53 103.42C2140.58 103.489 2140.63 103.557 2140.67 103.628C2140.74 103.727 2140.77 103.844 2140.75 103.96C2140.69 103.986 2140.62 104.003 2140.55 104.01C2140.07 104.096 2139.57 104.122 2139.08 104.087L2139 104.976C2139.17 104.994 2139.34 105 2139.5 105Z" fill="white"/>
</g>
<defs>
<clipPath id="clip0_8497_1041">
<rect width="2880" height="170" fill="white"/>
</clipPath>
</defs>
</svg>
